<mxfile host="app.diagrams.net" modified="2023-02-10T15:13:17.753Z" agent="5.0 (Macintosh; Intel Mac OS X 10_15_7) AppleWebKit/537.36 (KHTML, like Gecko) Chrome/107.0.0.0 Safari/537.36" etag="ByaGg8Hk3eo8B0dfVGMp" version="20.8.19" type="github">
  <diagram name="第 1 页" id="bB27rlJZbK9WMaBGsadt">
    <mxGraphModel dx="1026" dy="683" grid="1" gridSize="10" guides="1" tooltips="1" connect="1" arrows="1" fold="1" page="1" pageScale="1" pageWidth="827" pageHeight="1169" math="0" shadow="0">
      <root>
        <mxCell id="0" />
        <mxCell id="1" parent="0" />
        <mxCell id="TLzese3YwWzu5oeTVw5_-9" value="" style="edgeStyle=orthogonalEdgeStyle;rounded=0;orthogonalLoop=1;jettySize=auto;html=1;" edge="1" parent="1" source="TLzese3YwWzu5oeTVw5_-2" target="TLzese3YwWzu5oeTVw5_-8">
          <mxGeometry relative="1" as="geometry" />
        </mxCell>
        <mxCell id="TLzese3YwWzu5oeTVw5_-2" value="玩家" style="shape=umlActor;verticalLabelPosition=bottom;verticalAlign=top;html=1;outlineConnect=0;" vertex="1" parent="1">
          <mxGeometry x="160" y="260" width="30" height="60" as="geometry" />
        </mxCell>
        <mxCell id="TLzese3YwWzu5oeTVw5_-8" value="" style="rounded=1;whiteSpace=wrap;html=1;verticalAlign=top;" vertex="1" parent="1">
          <mxGeometry x="225" y="260" width="120" height="60" as="geometry" />
        </mxCell>
      </root>
    </mxGraphModel>
  </diagram>
</mxfile>
